<svg width="163" height="210" viewBox="0 0 163 210" fill="none" xmlns="http://www.w3.org/2000/svg">
<g clip-path="url(#clip0_12923_82361)">
<path d="M0 16C0 7.16344 7.16344 0 16 0H147C155.837 0 163 7.16344 163 16V194C163 202.837 155.837 210 147 210H16C7.16344 210 0 202.837 0 194V16Z" fill="url(#paint0_linear_12923_82361)"/>
<g filter="url(#filter0_f_12923_82361)">
<ellipse cx="123" cy="43.5" rx="123" ry="43.5" transform="matrix(-0.844323 -0.535835 -0.535835 0.844323 211.161 92.6797)" fill="#3D41FA"/>
</g>
</g>
<defs>
<filter id="filter0_f_12923_82361" x="-92.458" y="-81.9639" width="352.917" height="290.928" filterUnits="userSpaceOnUse" color-interpolation-filters="sRGB">
<feFlood flood-opacity="0" result="BackgroundImageFix"/>
<feBlend mode="normal" in="SourceGraphic" in2="BackgroundImageFix" result="shape"/>
<feGaussianBlur stdDeviation="35" result="effect1_foregroundBlur_12923_82361"/>
</filter>
<linearGradient id="paint0_linear_12923_82361" x1="81.5" y1="0" x2="81.5" y2="210" gradientUnits="userSpaceOnUse">
<stop stop-opacity="0.4"/>
<stop offset="1" stop-opacity="0"/>
</linearGradient>
<clipPath id="clip0_12923_82361">
<path d="M0 16C0 7.16344 7.16344 0 16 0H147C155.837 0 163 7.16344 163 16V194C163 202.837 155.837 210 147 210H16C7.16344 210 0 202.837 0 194V16Z" fill="white"/>
</clipPath>
</defs>
</svg>
